<svg width="120" height="26" viewBox="0 0 120 26" fill="none" xmlns="http://www.w3.org/2000/svg">
<path fill-rule="evenodd" clip-rule="evenodd" d="M0 0.521881H23.9503V25.4844H0V0.521881Z" fill="#FF0D29"/>
<path fill-rule="evenodd" clip-rule="evenodd" d="M17.3287 17.8454V14.2777L16.3094 14.7874V17.8454C14.8757 17.7434 13.1647 19.1313 12.232 19.3744V2.55534C12.232 2.55534 14.3925 1.32755 16.3094 1.536V12.7487L17.3287 12.239V4.08434C17.8817 4.01554 20.4642 3.88914 21.9157 2.35759V16.1054C20.6244 17.1821 19.0093 17.7947 17.3287 17.8454ZM7.14557 11.2304L6.56149 11.8598L6.11604 12.239V22.4324C5.65325 23.078 5.04008 23.601 4.32962 23.9562C3.61917 24.3115 2.83283 24.4882 2.0387 24.4711V11.1178C3.67276 10.9486 5.23315 10.3508 6.562 9.38488C6.77851 9.19869 6.97434 8.98971 7.14608 8.76156V5.61335C7.14608 5.61335 9.00127 3.51301 11.2132 3.06501V19.884C11.2132 19.884 8.19191 20.8295 7.14608 22.1128V11.2304H7.14557Z" fill="white"/>
<path fill-rule="evenodd" clip-rule="evenodd" d="M117.615 10.6692V4.83095H116.521C116.323 4.81453 116.125 4.83793 115.937 4.89976C115.904 4.91616 115.877 4.94165 115.858 4.97319C115.839 5.00473 115.83 5.04099 115.831 5.07763C115.848 5.30396 115.933 5.51986 116.075 5.69637C116.533 6.08253 117.026 6.42387 117.548 6.7157C117.123 7.56863 116.645 8.39435 116.117 9.18811C115.639 9.97257 115.083 10.7068 114.457 11.3797L114.334 11.5061L112.561 10.2115L112.725 10.028C113.078 9.59313 113.403 9.13697 113.7 8.66212C113.966 8.27223 114.257 7.77937 114.585 7.17644C114.216 6.93431 113.9 6.62019 113.656 6.25293C113.408 5.88332 113.277 5.44737 113.281 5.0022C113.269 4.6561 113.358 4.31398 113.537 4.01758C113.716 3.72118 113.978 3.48333 114.29 3.33304C114.722 3.13438 115.196 3.04196 115.672 3.06343H119.772V10.6692H117.615ZM106.766 9.31349C105.944 8.40532 105.493 7.22191 105.501 5.99707C105.501 4.63829 106.043 3.73721 107.118 3.30501C107.577 3.13245 108.066 3.05057 108.556 3.06393H112.124V10.7028H109.776C109.204 10.7031 108.638 10.579 108.119 10.3392C107.599 10.0993 107.137 9.7493 106.766 9.31349ZM109.786 5.12605H109.031C108.753 5.12008 108.477 5.18163 108.228 5.30545C108.097 5.40522 107.995 5.53911 107.934 5.69259C107.873 5.84606 107.856 6.01324 107.883 6.17597C107.884 6.55837 107.967 6.93619 108.125 7.28435C108.283 7.6325 108.513 7.94302 108.801 8.19527C109.08 8.437 109.423 8.59169 109.789 8.64021V5.1235L109.786 5.12605ZM102.94 10.7028L101.048 6.49093L102.653 3.06495H105.165L103.662 6.41806L105.488 10.7039H102.94L102.94 10.7028ZM98.8782 3.06495H101.037V10.7039H98.8782V3.06495ZM96.5643 8.27631C96.838 8.51118 97.1867 8.64043 97.5474 8.64072H98.3629L97.7905 10.7033H97.4205C96.6551 10.7143 95.9066 10.4782 95.286 10.0301C94.6684 9.59287 94.1664 9.01197 93.8233 8.33747C93.4506 7.6141 93.2599 6.81076 93.2677 5.99707C93.2677 4.63829 93.7886 3.73721 94.8411 3.30501C95.2868 3.13244 95.7624 3.05047 96.2401 3.06393H97.6738L98.2406 5.12605H96.7009C96.4315 5.11931 96.1647 5.18103 95.9257 5.30545C95.7967 5.40705 95.6975 5.54151 95.6385 5.69469C95.5795 5.84787 95.5629 6.01412 95.5903 6.17597C95.5895 6.59018 95.6867 6.9987 95.8742 7.36808C96.0375 7.71586 96.2727 8.02506 96.5643 8.27528V8.27631ZM90.4391 8.98424C90.423 9.28118 90.4542 9.57878 90.5313 9.86596L90.5884 10.0148L88.5768 11.2196L88.4748 11.0254C88.2489 10.5405 88.144 10.0079 88.169 9.47352V3.06495H92.7086L93.2606 5.03432H90.4386V8.98474L90.4391 8.98424ZM83.372 10.422V13.2542H81.0373V3.06495H84.5917C85.027 3.0273 85.4655 3.08197 85.8782 3.22539C86.291 3.36881 86.6689 3.59775 86.9871 3.89724C87.4521 4.43042 87.6928 5.12278 87.6589 5.8294C87.6708 6.87468 87.2937 7.88706 86.6008 8.66977C85.751 9.59857 84.614 10.2152 83.372 10.421V10.422ZM84.9168 5.17752C84.6659 5.06095 84.3918 5.00308 84.1151 5.00831H83.372V8.32115C83.7331 8.26701 84.0743 8.12156 84.3634 7.89857C84.6525 7.67558 84.8798 7.38245 85.0239 7.04698C85.1798 6.71938 85.2629 6.36189 85.2675 5.99911C85.2933 5.84284 85.274 5.68247 85.2118 5.53678C85.1497 5.3911 85.0474 5.26613 84.9168 5.17651V5.17752ZM74.7974 12.7486L75.885 9.65853L73.3922 3.06495H76.0267L77.0353 6.47973H77.0618L78.0705 3.06495H80.5296L77.1837 12.7486H74.7959H74.7974ZM69.8949 2.13532C69.6305 2.18932 69.3902 2.32585 69.2084 2.52522C69.0002 2.78113 68.8876 3.10151 68.8898 3.4314C69.1528 3.37567 69.4188 3.33551 69.6864 3.31112C69.9792 3.27685 70.2735 3.25763 70.5682 3.25353C71.323 3.20779 72.0664 3.45415 72.6446 3.94158C72.9043 4.20263 73.1054 4.51612 73.2343 4.86109C73.3633 5.20607 73.4171 5.57458 73.3922 5.94202C73.3922 6.5392 73.3095 7.1335 73.1466 7.70802C73.006 8.23255 72.7916 8.73449 72.51 9.19881C72.2512 9.63163 71.9038 10.0049 71.4907 10.2941C71.0774 10.5735 70.5884 10.7195 70.0896 10.7125C69.7729 10.7163 69.4585 10.6569 69.165 10.5378C68.8715 10.4187 68.6047 10.2423 68.3802 10.0189C67.8663 9.51155 67.4749 8.89383 67.2355 8.2126C66.9645 7.48496 66.8137 6.71808 66.789 5.94202C66.765 5.22492 66.765 4.83503 66.765 4.78356C66.7401 3.87789 66.8397 2.97309 67.0611 2.09455C67.2241 1.45596 67.6206 0.901664 68.1722 0.541082C68.8694 0.146149 69.6658 -0.039309 70.4657 0.00694795H72.3729L72.9478 2.04255L71.0386 2.03747C70.655 2.02851 70.2715 2.06114 69.8949 2.1348V2.13532ZM69.1916 7.38184C69.2801 7.72469 69.4294 8.04887 69.6324 8.33899C69.6807 8.42515 69.7464 8.50028 69.8254 8.55953C69.9044 8.61878 69.9949 8.66084 70.0911 8.68303C70.1893 8.66259 70.282 8.62129 70.3629 8.56194C70.4438 8.50259 70.511 8.42656 70.56 8.33899C70.7654 8.05301 70.9132 7.72983 70.9953 7.38744C71.1022 6.98141 71.1558 6.56321 71.1548 6.14335C71.1548 5.49556 70.8041 5.16836 70.0942 5.16836C69.3842 5.16836 69.028 5.49556 69.028 6.14335C69.0225 6.56175 69.0776 6.97872 69.1916 7.38133V7.38184ZM61.9696 10.4215V13.2537H59.6338V3.06495H63.1882C63.6236 3.02678 64.0621 3.08121 64.475 3.22466C64.8879 3.36811 65.2657 3.59732 65.5836 3.89724C66.0487 4.4298 66.29 5.12155 66.2569 5.82786C66.2688 6.87314 65.8917 7.88552 65.1988 8.66823C64.3493 9.59791 63.212 10.2152 61.9696 10.421V10.4215ZM63.5149 5.17702C63.264 5.05986 62.9895 5.00196 62.7127 5.00781H61.9696V8.32065C62.3307 8.2665 62.672 8.12104 62.9611 7.89806C63.2503 7.67508 63.4777 7.38196 63.6219 7.04648C63.7778 6.71888 63.8609 6.36139 63.8655 5.99861C63.8913 5.84242 63.872 5.6821 63.8099 5.53649C63.7478 5.39088 63.6455 5.26601 63.5149 5.17651V5.17702ZM57.5064 7.865C57.2156 8.07601 56.8649 8.30536 56.4544 8.55306C56.9119 8.64624 57.378 8.69082 57.8448 8.68607H58.7689L58.1822 10.7033H56.772C56.2031 10.7045 55.6407 10.5838 55.1224 10.3493C54.6041 10.1149 54.1421 9.77208 53.7675 9.34406C52.9479 8.46368 52.4959 7.3033 52.504 6.10053C52.5147 4.68111 52.9556 3.81161 53.9311 3.38298C54.5498 3.14387 55.2112 3.03457 55.8739 3.06189H56.3612C58.1985 3.06189 59.1251 3.74537 59.1251 5.12198C59.1233 5.87435 58.8312 6.59698 58.3096 7.13923C58.0677 7.40815 57.7985 7.65121 57.5064 7.86449V7.865ZM56.508 5.1342C56.3482 5.08589 56.1813 5.06554 56.0146 5.07406C55.8622 5.05069 55.7065 5.0631 55.5597 5.11031C55.4129 5.15752 55.2791 5.23823 55.1689 5.34606C55.0587 5.45389 54.9751 5.58589 54.9247 5.73161C54.8743 5.87733 54.8585 6.03277 54.8786 6.18564C54.884 6.49029 54.9382 6.79212 55.0391 7.07961C55.4428 6.85848 55.8265 6.60269 56.1859 6.31511C56.3333 6.22121 56.4581 6.0959 56.5515 5.94815C56.6449 5.8004 56.7045 5.63385 56.7261 5.4604C56.735 5.38884 56.7178 5.31647 56.6778 5.2565C56.6377 5.19654 56.5775 5.15294 56.508 5.13369V5.1342ZM50.3323 10.7028H48.0021V5.03481H45.8615L46.4221 3.06393H51.9225L52.4831 5.03481H50.3328V10.7028H50.3323ZM44.2494 7.86449C43.9579 8.07549 43.6016 8.30485 43.1975 8.55254C43.6533 8.64547 44.1176 8.69006 44.5828 8.68558H45.5098L44.9212 10.7028H43.5125C42.9433 10.704 42.3804 10.5832 41.8618 10.3488C41.3431 10.1143 40.8806 9.77158 40.5054 9.34355C39.6834 8.46471 39.231 7.30332 39.242 6.10002C39.2527 4.68059 39.694 3.8111 40.669 3.38247C41.288 3.14342 41.9494 3.03414 42.6124 3.06139H43.1001C44.9431 3.06139 45.8641 3.74485 45.8641 5.12147C45.8638 5.87414 45.5715 6.59734 45.0486 7.13873C44.8083 7.40793 44.5405 7.65117 44.2494 7.86449ZM43.2505 5.13369C43.0908 5.08503 42.9238 5.06469 42.7571 5.07356C42.6048 5.05028 42.4491 5.06275 42.3024 5.11C42.1556 5.15725 42.0219 5.23798 41.9118 5.3458C41.8016 5.45362 41.7181 5.58558 41.6677 5.73125C41.6174 5.87693 41.6016 6.03232 41.6216 6.18514C41.6268 6.48972 41.6807 6.79151 41.7811 7.0791C42.1849 6.85784 42.5687 6.60205 42.9284 6.3146C43.0764 6.22084 43.202 6.09576 43.2964 5.94817C43.3908 5.80058 43.4517 5.63408 43.4747 5.4604C43.4816 5.38829 43.4629 5.31607 43.4219 5.25635C43.3809 5.19663 43.3202 5.15321 43.2505 5.13369ZM42.6165 17.3305H43.1047C44.9523 17.3305 45.8758 18.0135 45.8758 19.3906C45.8735 20.1428 45.5815 20.8651 45.0603 21.4074C44.8207 21.6767 44.5529 21.9197 44.2617 22.1321C43.9698 22.3438 43.6183 22.5733 43.2072 22.8207C43.6648 22.9137 44.131 22.9583 44.5981 22.9537H45.5277L44.9375 24.9705H43.5257C42.9554 24.9716 42.3914 24.851 41.8714 24.6166C41.3514 24.3823 40.8875 24.0397 40.5105 23.6117C39.6864 22.734 39.2328 21.5721 39.2445 20.3682C39.2552 18.9488 39.6986 18.0788 40.6756 17.6506C41.2937 17.4117 41.9544 17.3028 42.6165 17.3305ZM41.7883 21.3472C42.193 21.1263 42.5777 20.8705 42.9381 20.5827C43.0862 20.4895 43.212 20.3649 43.3068 20.2178C43.4015 20.0706 43.4629 19.9045 43.4865 19.7311C43.4928 19.6589 43.4736 19.5867 43.4323 19.5271C43.391 19.4675 43.3301 19.4243 43.2602 19.4049C43.1001 19.3566 42.9328 19.3363 42.7658 19.3448C42.6133 19.3211 42.4573 19.3334 42.3103 19.3805C42.1633 19.4276 42.0293 19.5082 41.9189 19.6161C41.8085 19.7239 41.7247 19.856 41.6741 20.0018C41.6236 20.1477 41.6077 20.3033 41.6277 20.4563C41.6329 20.76 41.6871 21.0609 41.7883 21.3472ZM35.2135 19.9095L32.5775 19.9197V23.1459C32.5775 23.4894 32.5837 23.7575 32.6005 23.9552C32.6194 24.1517 32.6616 24.3452 32.7264 24.5316L30.4558 26C30.1689 25.3255 30.0372 24.5952 30.0705 23.863V14.7873H32.575V17.8632H35.211V14.7873H37.7155V24.9669H35.2125V19.9095H35.2135ZM35.1672 2.57516H32.4384L32.575 8.87516C32.575 9.21868 32.5806 9.48677 32.5979 9.68452C32.6169 9.88098 32.6592 10.0745 32.7238 10.2609L30.4538 11.7293C30.1666 11.0555 30.0356 10.3254 30.0705 9.5938V0.521717H37.7155V10.7013H35.2084L35.1672 2.57516ZM46.4818 22.1862C46.4652 21.2972 46.6657 20.4175 47.0659 19.6236C47.4228 18.926 47.9676 18.342 48.6387 17.9376C49.5161 17.4931 50.4941 17.2846 51.4765 17.3326H52.5912V22.9089H53.5045L52.9439 24.971H46.4308L45.8702 22.9089H46.5231C46.4919 22.6693 46.4781 22.4277 46.4818 22.1862ZM48.8477 22.9089H50.4327V19.4941C49.3176 19.772 48.7602 20.6118 48.7605 22.0134C48.7554 22.3141 48.7841 22.6145 48.8461 22.9089H48.8477ZM59.7653 17.8881C59.945 18.0584 60.0876 18.2641 60.1841 18.4921C60.2805 18.7201 60.3288 18.9657 60.3259 19.2133C60.3105 19.5257 60.2275 19.8311 60.0827 20.1083C59.9379 20.3856 59.7346 20.6281 59.487 20.8192C59.9339 21.1794 60.2795 21.6496 60.49 22.1836C60.592 22.437 60.6461 22.7071 60.6495 22.9802C60.6515 23.2465 60.5961 23.51 60.4873 23.753C60.3784 23.996 60.2185 24.2127 60.0186 24.3884C59.4341 24.8271 58.7078 25.0338 57.9799 24.9684H54.0335V17.3321H57.9936C58.6338 17.2782 59.2694 17.4779 59.7637 17.8881H59.7653ZM57.4717 20.2285C57.6228 20.1131 57.7257 19.9459 57.7607 19.7591C57.7607 19.4625 57.5375 19.3947 57.0982 19.3947H56.3444V22.9089H57.4656C57.8586 22.9089 58.0614 22.785 58.0614 22.5322C58.0585 22.4415 58.0376 22.3523 58.0001 22.2696C57.9626 22.187 57.9091 22.1125 57.8428 22.0506C57.6435 21.8615 57.4266 21.6918 57.195 21.544L56.4621 21.0256C56.8232 20.794 57.1604 20.5269 57.4687 20.2285H57.4717ZM64.7789 17.3326C64.7279 17.4931 64.6259 17.7526 64.496 18.1103L64.1876 18.9625C64.1137 19.1786 64.0286 19.4441 63.9328 19.7591C63.837 20.0741 63.7733 20.3707 63.7142 20.6485C63.6472 20.967 63.6117 21.2914 63.6081 21.6169C63.6081 22.4074 63.8854 22.7962 64.5225 22.8706C64.7513 22.8979 64.9816 22.9103 65.2121 22.9079H65.6142V17.3326H67.7844V24.971H64.0786C62.126 24.971 61.1582 23.9093 61.1582 21.7845C61.1582 20.6674 61.5724 19.1834 62.4007 17.3326H64.7773H64.7789ZM68.6014 17.3326H71.2165L72.1848 20.809L70.9978 24.971H68.2905L69.6813 20.7229L68.6014 17.3326ZM74.4768 24.971H72.2776V17.3326H74.4768V24.971ZM78.1561 17.3326L77.0746 20.7229L78.4853 24.971H75.7647L74.5665 20.809L75.542 17.3326H78.1561ZM82.1081 17.3326C82.0571 17.4931 81.9552 17.7526 81.8247 18.1103L81.5189 18.9625C81.4424 19.1786 81.3594 19.4441 81.2641 19.7591C81.1688 20.0741 81.0989 20.3707 81.0408 20.6485C80.9739 20.967 80.9384 21.2914 80.9348 21.6169C80.9348 22.4074 81.2121 22.7962 81.8492 22.8706C82.0781 22.8979 82.3087 22.9103 82.5392 22.9079H82.9979V17.3326H85.1126V24.971H81.4073C79.4547 24.971 78.4853 23.9093 78.4853 21.7845C78.4853 20.6674 78.8995 19.1834 79.7279 17.3326H82.1076H82.1081ZM89.7021 19.3025L91.1674 17.3326H93.2657V24.971H91.0889V21.0007L89.6991 22.705L88.3082 21.0007V24.971H86.1339V17.3326H88.2317L89.7021 19.3025ZM95.2315 17.8662C95.7798 17.4721 96.4488 17.2825 97.1224 17.3301H98.0907C98.7643 17.2825 99.4332 17.4722 99.9816 17.8662C100.355 18.1599 100.63 18.56 100.771 19.0135C100.865 19.3627 100.916 19.7221 100.923 20.0838C100.923 20.6959 100.841 21.3052 100.679 21.8956C100.54 22.4328 100.325 22.9475 100.041 23.4246C99.78 23.8659 99.4308 24.2486 99.0153 24.549C98.6034 24.8348 98.1125 24.9848 97.6111 24.9781C97.2882 24.9805 96.968 24.9187 96.6692 24.7962C96.3704 24.6737 96.0989 24.493 95.8706 24.2646C95.342 23.7414 94.942 23.1026 94.702 22.3987C94.4343 21.6552 94.2977 20.8709 94.2983 20.0807C94.3071 19.7192 94.3584 19.36 94.4512 19.0104C94.5866 18.558 94.8584 18.1584 95.2295 17.8662H95.2315ZM96.7034 21.5618C96.7922 21.9119 96.9397 22.2443 97.1397 22.545C97.1677 22.6466 97.2283 22.7362 97.3122 22.8001C97.3961 22.864 97.4986 22.8986 97.604 22.8986C97.7094 22.8986 97.8119 22.864 97.8958 22.8001C97.9797 22.7362 98.0403 22.6466 98.0683 22.545C98.2725 22.2496 98.4187 21.918 98.499 21.5679C98.6069 21.1518 98.6613 20.7236 98.661 20.2938C98.6391 20.0259 98.5172 19.7761 98.3196 19.594C98.122 19.4119 97.8631 19.3108 97.5943 19.3108C97.3256 19.3108 97.0667 19.4119 96.869 19.594C96.6714 19.7761 96.5495 20.0259 96.5276 20.2938C96.5299 20.7222 96.5883 21.1485 96.7014 21.5618H96.7034ZM104.393 17.3316H105.826L106.393 19.3937H104.853C104.584 19.3869 104.317 19.4487 104.078 19.5731C103.949 19.6747 103.85 19.8092 103.791 19.9623C103.732 20.1155 103.716 20.2818 103.743 20.4436C103.742 20.8576 103.839 21.2661 104.026 21.6352C104.196 21.9818 104.434 22.2905 104.726 22.5429C105.001 22.7785 105.351 22.9078 105.712 22.9073H106.517L105.944 24.9695H105.578C104.812 24.9803 104.062 24.7445 103.44 24.2967C102.822 23.8596 102.32 23.2787 101.977 22.6041C101.604 21.8808 101.413 21.0774 101.421 20.2637C101.421 18.9049 101.942 18.0033 102.994 17.5716C103.439 17.4004 103.914 17.3191 104.391 17.3326L104.393 17.3316ZM113.086 17.3316L113.653 19.3025H111.498V24.9705H109.171V19.303H107.03L107.586 17.3321H113.085L113.086 17.3316ZM116.386 19.0237C117.088 19.3221 117.754 19.697 118.374 20.1414C118.803 20.4478 119.166 20.8385 119.439 21.2896C119.662 21.6829 119.776 22.1286 119.768 22.5806C119.776 22.9844 119.681 23.3835 119.492 23.7402C119.303 24.097 119.026 24.3995 118.687 24.6193C118.26 24.8695 117.77 24.9916 117.276 24.971H114.164V17.3326H116.39V19.0242L116.386 19.0237ZM116.386 22.9206H116.801C117.259 22.9206 117.486 22.8095 117.486 22.5806C117.478 22.3783 117.391 22.1873 117.243 22.0496C116.984 21.8002 116.697 21.5826 116.387 21.4013V22.9206H116.386Z" fill="#02101C"/>
</svg>
