<svg width="61" height="26" viewBox="0 0 61 26" fill="none" xmlns="http://www.w3.org/2000/svg">
<path fill-rule="evenodd" clip-rule="evenodd" d="M57.6905 14.6785C57.3552 14.6938 57.022 14.6172 56.7271 14.4569C56.4321 14.2965 56.1866 14.0587 56.0171 13.7689V16.55H54.3621V8.39884H55.8884V9.38557C56.0663 9.04281 56.3366 8.7567 56.6688 8.55964C57.0009 8.36258 57.3815 8.26244 57.7676 8.27054C59.2871 8.27054 60.0979 9.59186 60.0979 11.4102C60.0983 13.7305 58.9006 14.6785 57.6905 14.6785ZM57.0857 9.47506C56.4417 9.47506 56.0299 10.0134 56.0299 10.7567V12.0896C56.0299 12.9484 56.4289 13.474 57.0857 13.474C57.9867 13.474 58.2186 12.5 58.2186 11.4489C58.2186 10.0518 57.7809 9.47506 57.0857 9.47506ZM51.2489 13.5157H51.2216C51.0586 13.9013 50.7825 14.2283 50.4297 14.4536C50.0769 14.6789 49.664 14.7918 49.2456 14.7774C48.7484 14.7998 48.2602 14.639 47.8736 14.3256C47.6092 14.087 47.4044 13.7897 47.2758 13.4576C47.1471 13.1256 47.0981 12.7679 47.1328 12.4135V8.26885H49.0538V12.1198C49.0247 12.4578 49.1013 12.7965 49.2729 13.0891C49.3526 13.1855 49.4536 13.2621 49.5679 13.3129C49.6823 13.3636 49.8069 13.3871 49.9319 13.3815C50.0992 13.3829 50.2646 13.3451 50.4147 13.2711C50.5648 13.197 50.6955 13.0889 50.7962 12.9552C51.0142 12.6556 51.1208 12.2893 51.098 11.9195V8.26885H52.8852V14.6563H51.2489V13.5157ZM43.3117 14.7769C42.4985 14.8005 41.7062 14.5172 41.0923 13.9833C40.7616 13.6633 40.5004 13.2787 40.3247 12.8534C40.1491 12.4281 40.0629 11.9712 40.0714 11.5112C40.0578 11.0809 40.1328 10.6524 40.2917 10.2522C40.4506 9.8521 40.6901 9.48889 40.9952 9.18515C41.3003 8.8814 41.6645 8.6436 42.0654 8.48649C42.4662 8.32938 42.8951 8.2563 43.3253 8.27181C44.158 8.25141 44.9652 8.56 45.5719 9.13067C45.8901 9.43901 46.1414 9.80959 46.31 10.2193C46.4787 10.629 46.5611 11.069 46.5523 11.512C46.5579 11.9718 46.4701 12.428 46.2943 12.853C46.1184 13.2779 45.8582 13.6627 45.5293 13.9842C44.9144 14.515 44.1238 14.7977 43.3117 14.7769ZM44.2238 9.98826C44.1296 9.832 43.9954 9.70375 43.8351 9.61681C43.6747 9.52988 43.494 9.48741 43.3117 9.49381C43.1276 9.48836 42.9454 9.53112 42.783 9.61785C42.6206 9.70459 42.4837 9.83228 42.3859 9.98826C42.124 10.4508 42.0054 10.9807 42.0449 11.5107C41.998 12.0321 42.1015 12.5561 42.3433 13.0204C42.4382 13.1879 42.5772 13.3262 42.7453 13.4202C42.9133 13.5142 43.1039 13.5604 43.2963 13.5537C43.489 13.5618 43.6801 13.5162 43.8484 13.4221C44.0167 13.3279 44.1555 13.1889 44.2493 13.0204C44.4843 12.5537 44.5875 12.0317 44.5477 11.5107C44.5865 10.9828 44.4741 10.4547 44.2238 9.98826ZM38.3768 10.1771C37.7984 10.5607 37.7101 11.1702 37.7101 11.8321V14.7582H35.937V8.40267H37.4838V9.80625H37.5081C37.553 9.43892 37.7061 9.09323 37.948 8.81313C38.0956 8.64147 38.2788 8.50402 38.4849 8.41032C38.691 8.31662 38.915 8.26891 39.1414 8.27054C39.2508 8.27258 39.36 8.28141 39.4683 8.29697V9.96523H39.1789C38.8967 9.95734 38.6183 10.0309 38.3768 10.1771ZM31.9872 7.99691C31.8649 7.80935 31.6961 7.65665 31.4972 7.55372C31.2984 7.45079 31.0763 7.40111 30.8525 7.40955C30.5564 7.41047 30.2673 7.49995 30.0225 7.66644C29.7776 7.83293 29.5881 8.06883 29.4784 8.34385C29.2217 8.97371 29.1138 9.65428 29.163 10.3326C29.1278 11.0508 29.2572 11.7675 29.5415 12.428C29.6695 12.6831 29.8657 12.8978 30.1082 13.0482C30.3507 13.1987 30.6302 13.2791 30.9156 13.2805C31.1081 13.2846 31.2993 13.2489 31.4772 13.1755C31.6552 13.1022 31.816 12.9928 31.9496 12.8542C32.222 12.5394 32.37 12.1359 32.3656 11.7196V11.5082H30.7392V10.0403H34.0339V14.6584H33.1849L32.8822 13.7105C32.6853 13.9947 32.4321 14.2355 32.1385 14.4181C31.4933 14.7457 30.7588 14.8538 30.0466 14.7261C29.3343 14.5984 28.6832 14.2418 28.192 13.7105C27.4736 12.7785 27.0915 11.6308 27.1081 10.4541C27.0779 9.27264 27.4374 8.11408 28.1311 7.15723C28.4612 6.75012 28.8811 6.42499 29.3579 6.20729C29.8348 5.98959 30.3555 5.88525 30.8794 5.90242C33.3379 5.90242 34.0335 7.63758 34.1575 8.94568H32.3166C32.2807 8.60841 32.168 8.28387 31.9872 7.99691ZM24.315 5.31165L25.9223 5.31719L25.9334 14.5365H24.3137V5.31209L24.315 5.31165ZM20.2403 14.245C19.7851 13.7527 19.8102 13.1436 19.8102 12.5473V9.69671H18.852V8.41375H19.8123L19.846 6.43476L21.582 6.50852V8.42655H22.8607V9.70951H21.597V12.509C21.5677 12.758 21.6357 13.0087 21.7866 13.2088C21.8598 13.2749 21.9459 13.3251 22.0394 13.3562C22.1329 13.3874 22.2319 13.3989 22.3301 13.39H22.9873V14.6734C22.5522 14.7391 22.1129 14.7737 21.6728 14.7769C21.4108 14.7906 21.1486 14.7506 20.9026 14.6591C20.6566 14.5677 20.4319 14.4269 20.2424 14.2454L20.2403 14.245ZM15.1375 13.5404C15.4291 13.5511 15.7152 13.4594 15.9462 13.2811C16.1772 13.1028 16.3385 12.8492 16.4021 12.5644H18.1496V12.5772C18.0554 13.0328 17.4502 14.7765 15.0548 14.7765C14.1909 14.8011 13.3513 14.4884 12.7139 13.9049C12.4059 13.5942 12.1647 13.2238 12.005 12.8165C11.8453 12.4092 11.7705 11.9735 11.7852 11.5363C11.7631 11.0494 11.8549 10.5641 12.0536 10.119C12.2522 9.67385 12.552 9.2813 12.9291 8.97255C13.5364 8.49219 14.2946 8.24323 15.0684 8.27012C15.526 8.25352 15.9815 8.33819 16.4026 8.51812C16.8236 8.69806 17.1997 8.96878 17.5039 9.31096C18.0197 9.95038 18.2873 10.7545 18.2575 11.5755V11.8875H13.8208C13.8208 12.708 14.1439 13.5409 15.1396 13.5409L15.1375 13.5404ZM16.3079 10.8467C16.3079 10.5483 16.16 9.4934 15.0837 9.4934C14.9083 9.48925 14.7339 9.522 14.5719 9.58955C14.4099 9.6571 14.2638 9.75794 14.1433 9.88552C14.0227 10.0131 13.9304 10.1646 13.8721 10.3302C13.8138 10.4957 13.791 10.6717 13.805 10.8467H16.3079ZM11.1957 11.9932C11.196 12.3843 11.1085 12.7704 10.9396 13.1231C10.7708 13.4758 10.5249 13.7861 10.2201 14.031C9.51323 14.5545 8.64738 14.818 7.76879 14.7769C5.31754 14.7769 4.23918 13.3252 4.12367 11.9267H5.99909C6.02467 12.2328 6.40955 13.2719 7.82165 13.2719C9.02788 13.2719 9.18174 12.6057 9.18174 12.3261C9.18174 11.5406 8.11616 11.3539 7.17846 11.1007C6.20282 10.8343 4.54735 10.4081 4.54735 8.54333C4.54735 7.1713 5.51021 5.90624 7.75602 5.90624C10.6181 5.90624 10.9391 8.07704 10.9391 8.51648H9.2832C9.2832 8.38307 8.97545 7.41126 7.65328 7.41126C6.69086 7.41126 6.48542 7.94405 6.48542 8.29015C6.48542 9.10255 7.79438 9.2756 8.57736 9.4755C9.4652 9.70268 11.1978 10.1822 11.1978 11.9936L11.1957 11.9932Z" fill="black"/>
<path fill-rule="evenodd" clip-rule="evenodd" d="M0 0V26H26V16.623H24.2951V24.2951H1.70492V1.70492H24.2951V3.40984H26V0H0Z" fill="#ED1C24"/>
</svg>
